<?xml version="1.0" standalone="no"?>
<!DOCTYPE svg PUBLIC "-//W3C//DTD SVG 1.1//EN" "http://www.w3.org/Graphics/SVG/1.1/DTD/svg11.dtd" >
<svg xmlns="http://www.w3.org/2000/svg" xmlns:xlink="http://www.w3.org/1999/xlink" version="1.1">
<metadata></metadata>
<defs>
<font id="hk_compaktbold" horiz-adv-x="1161" >
<font-face units-per-em="2048" ascent="1638" descent="-410" />
<missing-glyph horiz-adv-x="532" />
<glyph unicode="&#xfb01;" horiz-adv-x="1187" d="M18 815v184h185v117q0 154 87 236t253 82q125 0 215 -60l-90 -209q-47 35 -101 35q-76 0 -75 -106v-95h563v-999h-293v815h-270v-815h-291v815h-183z" />
<glyph unicode="&#xfb02;" horiz-adv-x="1259" d="M18 815v184h185v117q0 154 87 236t253 82q125 0 215 -60l-90 -209q-47 35 -101 35q-76 0 -75 -106v-95h227v-184h-227v-815h-291v815h-183zM834 0v1411h290v-1411h-290z" />
<glyph horiz-adv-x="0" />
<glyph unicode="&#xd;" horiz-adv-x="681" />
<glyph unicode=" "  horiz-adv-x="532" />
<glyph unicode="&#x09;" horiz-adv-x="532" />
<glyph unicode="&#xa0;" horiz-adv-x="532" />
<glyph unicode="!" horiz-adv-x="604" d="M156 0v291h293v-291h-293zM168 1436h268l-28 -992h-211z" />
<glyph unicode="&#x22;" horiz-adv-x="841" d="M119 840v573h231v-573h-231zM483 840v573h238v-573h-238z" />
<glyph unicode="#" horiz-adv-x="1394" d="M72 401v199h272l49 234h-239v208h280l94 392h222l-99 -437h223l93 437h221l-96 -402h231v-198h-270l-52 -234h240v-209h-278l-93 -391h-219l92 436h-221l-90 -436h-219l90 401h-231zM561 600h223l50 234h-222z" />
<glyph unicode="$" horiz-adv-x="1208" d="M72 395l284 56q14 -102 87 -155.5t184 -53.5q219 0 219 172q0 53 -50.5 95t-126 68.5t-163.5 66.5t-164 85t-126 127t-50 188q0 150 92 250.5t234 132.5v232h239v-227q229 -39 336 -234l-242 -137q-70 123 -211 123q-68 0 -112.5 -37t-44.5 -94q0 -49 50 -88t126 -65 t164 -65.5t163.5 -87t126 -134.5t50.5 -201q0 -174 -116 -290t-290 -138v-230h-239v234q-162 31 -278 137t-142 270z" />
<glyph unicode="%" horiz-adv-x="1599" d="M92 1092q0 53 14.5 108t45 110.5t91 90.5t142.5 35q143 0 219 -106.5t76 -239.5q0 -131 -74 -233.5t-215 -102.5q-84 0 -145.5 34.5t-93 90t-46 108.5t-14.5 105zM266 -33l805 1503h248l-805 -1503h-248zM295 1092q0 -59 25.5 -98.5t66.5 -39.5q35 0 60.5 40t25.5 98 q0 63 -25.5 103t-62.5 40q-41 0 -65.5 -40t-24.5 -103zM920 330q0 55 14 111.5t45 112.5t91 92t142 36q145 0 220 -108.5t75 -243.5q0 -133 -73.5 -237.5t-214.5 -104.5q-84 0 -145.5 34.5t-93.5 89t-46 109.5t-14 109zM1122 330q0 -61 26 -102.5t69 -41.5q35 0 59 42 t24 104q0 66 -25.5 106.5t-62.5 40.5q-39 0 -64.5 -41t-25.5 -108z" />
<glyph unicode="&#x26;" horiz-adv-x="1398" d="M84 342q0 55 25.5 119.5t99.5 149.5t188 155q-154 160 -153 319q0 154 114.5 249.5t298.5 95.5q176 0 285 -94.5t109 -248.5q0 -82 -57.5 -178t-188.5 -182l160 -172q25 98 24 141l279 -24q-16 -160 -94 -338l237 -252l-215 -168l-186 213q-88 -66 -211 -108t-230 -42 q-217 0 -351 101.5t-134 263.5zM360 332q0 -53 56.5 -87t144.5 -34q150 0 258 94l-248 283q-115 -78 -163 -145.5t-48 -110.5zM520 1083q1 -77 107 -200q158 117 157 198q0 47 -34.5 77t-90.5 30q-61 0 -100 -29t-39 -76z" />
<glyph unicode="'" horiz-adv-x="468" d="M119 868v574h231v-574h-231z" />
<glyph unicode="(" horiz-adv-x="645" d="M82 707q0 604 242 868h260q-281 -338 -281 -873q0 -299 63.5 -483t215.5 -385h-252q-113 117 -180.5 363.5t-67.5 509.5z" />
<glyph unicode=")" horiz-adv-x="645" d="M61 1575h261q242 -268 241 -868q0 -260 -66.5 -508t-179.5 -365h-254q152 197 215.5 382t63.5 486q0 276 -65.5 485.5t-215.5 387.5z" />
<glyph unicode="*" horiz-adv-x="817" d="M51 1114l74 193l197 -80l-27 186h229l-26 -186l196 80l72 -193l-221 -29l151 -139l-184 -115l-106 197l-103 -197l-184 115l147 139z" />
<glyph unicode="+" horiz-adv-x="1382" d="M129 518v213h457v412h211v-412h456v-213h-456v-412h-211v412h-457z" />
<glyph unicode="," horiz-adv-x="573" d="M51 -287l101 551h317l-229 -551h-189z" />
<glyph unicode="-" horiz-adv-x="733" d="M61 412v211h611v-211h-611z" />
<glyph unicode="." horiz-adv-x="471" d="M104 0v291h263v-291h-263z" />
<glyph unicode="/" horiz-adv-x="1212" d="M172 -156l637 1567h256l-637 -1567h-256z" />
<glyph unicode="0" horiz-adv-x="1292" d="M61 706.5q0 96.5 16.5 191.5t58.5 193.5t105.5 173t166 123t229.5 48.5q147 0 264 -64.5t187.5 -171t106.5 -233.5t36 -262q0 -184 -59.5 -344t-195 -270.5t-325.5 -110.5q-131 0 -235.5 47t-169 121.5t-107.5 174t-60.5 193.5t-17.5 190.5zM350 706.5 q0 -180.5 76 -314.5t219 -134q94 0 160.5 70.5t95.5 169t29 211.5q0 180 -75 312t-218 132q-139 0 -213 -133t-74 -313.5z" />
<glyph unicode="1" horiz-adv-x="864" d="M33 1012v213h172q139 0 139 147v41h279v-1413h-287v1012h-303z" />
<glyph unicode="2" horiz-adv-x="1226" d="M78 899q0 236 143.5 384.5t370.5 148.5q211 0 341 -122t130 -325q0 -272 -277 -528q-115 -106 -264 -189h611v-268h-1033v254q315 182 496 377q178 193 178 362q0 78 -49 126t-129 48q-94 0 -160.5 -79.5t-73.5 -206.5z" />
<glyph unicode="3" horiz-adv-x="1095" d="M35 463l278 14q0 -106 65.5 -165.5t174.5 -59.5q98 0 163.5 49t65.5 141q0 84 -59 132.5t-162 48.5h-82v254h82q74 0 113 37.5t39 99.5q0 70 -45 107.5t-121 37.5q-84 0 -128 -48t-46 -130l-275 16q0 203 129 320t314 117q182 0 316 -107.5t134 -286.5q0 -168 -117 -270 q180 -104 189 -338q0 -217 -149.5 -334.5t-362.5 -117.5q-219 0 -367.5 124.5t-148.5 358.5z" />
<glyph unicode="4" horiz-adv-x="1124" d="M41 315v267l627 831h239v-833h176v-265h-176v-315h-289v315h-577zM344 580h274v387z" />
<glyph unicode="5" horiz-adv-x="1253" d="M98 385l273 80q59 -217 243 -217q102 0 173 75.5t71 172.5q0 98 -66.5 164.5t-177.5 66.5q-59 0 -116.5 -29.5t-94.5 -79.5l-270 66l135 729h824v-272h-588l-47 -187q86 33 194 33q207 0 355.5 -145.5t148.5 -347.5q0 -209 -160 -361.5t-381 -152.5q-180 0 -323.5 116.5 t-192.5 288.5z" />
<glyph unicode="6" horiz-adv-x="1146" d="M39 469q0 147 78 260l432 684h334l-301 -440l-11 -8q221 0 379 -136.5t158 -341.5q0 -207 -155 -357t-384 -150q-219 0 -374.5 143t-155.5 346zM326 485.5q0 -94.5 71.5 -162t173.5 -67.5q104 0 177 66.5t73 162.5q0 94 -72.5 161t-177.5 67q-102 0 -173.5 -66.5 t-71.5 -161z" />
<glyph unicode="7" horiz-adv-x="985" d="M37 1143v270h907v-309l-485 -1104h-322l502 1143h-602z" />
<glyph unicode="8" horiz-adv-x="1177" d="M96 420q0 104 42 195.5t112 148.5q-90 100 -90 274q0 182 127 289t299 107q174 0 302 -106.5t128 -289.5q0 -147 -90 -274q156 -121 155 -344q0 -213 -146 -326.5t-351 -113.5q-201 0 -344.5 113.5t-143.5 326.5zM377 438q0 -94 57.5 -143t149.5 -49q96 0 152.5 49 t56.5 143q0 88 -56.5 138.5t-153 50.5t-151.5 -50.5t-55 -138.5zM444 1028q0 -72 37 -113t105 -41q72 0 112.5 39t40.5 103q0 72 -41 109.5t-114 37.5q-59 0 -99.5 -35.5t-40.5 -99.5z" />
<glyph unicode="9" horiz-adv-x="1146" d="M39 926q0 207 153.5 357.5t378.5 150.5q221 0 379 -143.5t158 -346.5q0 -147 -78 -260l-434 -684h-332l301 440q-4 2 4 9q-217 0 -373.5 136t-156.5 341zM326 928q0 -94 71.5 -161t171.5 -67q106 0 179 65.5t73 162t-72.5 163t-179.5 66.5q-100 0 -171.5 -67.5 t-71.5 -161.5z" />
<glyph unicode=":" horiz-adv-x="501" d="M104 0v291h293v-291h-293zM104 664v290h293v-290h-293z" />
<glyph unicode=";" horiz-adv-x="604" d="M51 -287l101 551h317l-229 -551h-189zM184 664v290h293v-290h-293z" />
<glyph unicode="&#x3c;" horiz-adv-x="1396" d="M129 674l1022 532l117 -202l-686 -330l686 -330l-117 -203z" />
<glyph unicode="=" horiz-adv-x="1114" d="M129 369v235h856v-235h-856zM129 739v236h856v-236h-856z" />
<glyph unicode="&#x3e;" horiz-adv-x="1396" d="M129 344l680 330l-680 330l117 202l1022 -532l-1022 -533z" />
<glyph unicode="?" horiz-adv-x="1050" d="M59 965q0 221 120 345t329 124q197 0 332 -108.5t135 -305.5q0 -106 -35 -182t-85 -114t-100 -64.5t-85 -51t-35 -55.5v-113h-234v115q0 96 35 158.5t84 92.5t97.5 54.5t83 64.5t34.5 99q0 180 -219 180q-123 0 -169 -58.5t-46 -180.5h-242zM375 0v291h293v-291h-293z " />
<glyph unicode="@" horiz-adv-x="1976" d="M72 543q0 369 269 629t652 260q379 0 646.5 -264.5t267.5 -637.5q0 -111 -28 -216t-83 -197t-151.5 -148.5t-221.5 -56.5q-111 0 -186.5 62.5t-91.5 160.5q-133 -104 -283 -104q-166 0 -256 120.5t-90 284.5q0 106 33 216t93 205t159.5 155.5t220.5 60.5 q68 0 134.5 -32.5t107.5 -86.5l16 70h211q-209 205 -498 205q-293 0 -503.5 -202t-210.5 -480.5t210.5 -480t503.5 -201.5q117 0 224 39l77 -199q-147 -53 -301 -53q-252 0 -465 119.5t-334.5 324.5t-121.5 447zM717 430q0 -180 164 -180q141 0 228 132t87 294 q0 178 -156 178q-147 0 -235 -131t-88 -293zM1341 209q1 -74 89 -74q133 0 201.5 123t68.5 279q0 272 -201 479q-18 -86 -64 -265.5t-70 -305.5t-24 -236z" />
<glyph unicode="A" horiz-adv-x="1388" d="M6 0l492 1413h395l489 -1413h-323l-96 307h-533l-98 -307h-326zM508 551h379l-189 598z" />
<glyph unicode="B" horiz-adv-x="1249" d="M162 0v1411h528q86 0 162 -18.5t143.5 -59.5t107.5 -119.5t40 -185.5q0 -90 -44 -163.5t-102 -106.5q88 -31 151.5 -134.5t63.5 -203.5q0 -195 -135 -307.5t-327 -112.5h-588zM455 281h299q90 0 131 39.5t41 132.5q0 61 -50.5 110t-142.5 49h-278v-331zM455 862h272 q70 0 113 31t43 123q0 129 -189 129h-239v-283z" />
<glyph unicode="C" horiz-adv-x="1456" d="M74 707q0 201 72.5 361.5t234.5 264t391 103.5q221 0 388 -107.5t253 -310.5l-276 -107q-33 113 -132.5 178.5t-234.5 65.5q-186 0 -295.5 -118.5t-109.5 -319.5q0 -209 111.5 -333t297.5 -124q123 0 222.5 67.5t144.5 182.5l274 -111q-86 -203 -253 -311t-388 -108 q-174 0 -310 59t-220 160.5t-127 230.5t-43 277z" />
<glyph unicode="D" horiz-adv-x="1406" d="M162 0v1411h426q365 0 555 -185.5t190 -529.5q0 -332 -193.5 -514t-553.5 -182h-424zM455 270h106q481 0 481 437q0 432 -458 432h-129v-869z" />
<glyph unicode="E" horiz-adv-x="1214" d="M162 0v1411h952v-272h-659v-299h608v-267h-608v-294h659v-279h-952z" />
<glyph unicode="F" horiz-adv-x="1239" d="M162 0v1411h1040v-272h-747v-299h659v-267h-659v-573h-293z" />
<glyph unicode="G" horiz-adv-x="1581" d="M74 711q0 199 73.5 359.5t233.5 263t381 102.5q459 0 647 -418l-260 -107q-39 139 -139.5 208t-237.5 69q-203 0 -305 -134t-102 -341t102 -342t295 -135q156 0 273.5 93t117.5 218h-322v233h607v-780h-228l-32 174q-92 -106 -189.5 -150t-234.5 -44q-319 0 -499.5 210.5 t-180.5 520.5z" />
<glyph unicode="H" horiz-adv-x="1490" d="M162 0v1411h293v-571h579v571h293v-1411h-293v573h-579v-573h-293z" />
<glyph unicode="I" horiz-adv-x="616" d="M162 0v1413h293v-1413h-293z" />
<glyph unicode="J" horiz-adv-x="796" d="M31 0v268q51 -14 145 -14q123 0 166 59.5t43 202.5v895h293v-899q0 -238 -123 -385t-379 -147q-82 0 -145 20z" />
<glyph unicode="K" horiz-adv-x="1507" d="M162 0v1411h293v-698l630 698h371l-545 -573l588 -838h-362l-422 631l-260 -275v-356h-293z" />
<glyph unicode="L" horiz-adv-x="1079" d="M162 0v1411h293v-1132h604v-279h-897z" />
<glyph unicode="M" horiz-adv-x="1900" d="M162 0v1411h424l362 -952l363 952h428v-1411h-279v1108l-377 -985h-270l-377 985v-1108h-274z" />
<glyph unicode="N" horiz-adv-x="1558" d="M162 0v1411h315l639 -987v987h279v-1411h-320l-639 989v-989h-274z" />
<glyph unicode="O" horiz-adv-x="1554" d="M74 706.5q0 333.5 189.5 530.5t510.5 197q324 0 515.5 -197t191.5 -530.5t-191.5 -530t-515.5 -196.5q-322 0 -511 196.5t-189 530zM389 707q0 -215 104.5 -342t280.5 -127q180 0 286.5 127t106.5 342t-106.5 342t-286.5 127q-176 0 -280.5 -127t-104.5 -342z" />
<glyph unicode="P" horiz-adv-x="1189" d="M162 0v1411h518q213 0 338 -115.5t125 -312.5q0 -190 -125 -303t-338 -113h-227v-567h-291zM453 838h206q193 0 193 145q0 74 -50 113t-143 39h-206v-297z" />
<glyph unicode="Q" horiz-adv-x="1560" d="M74 706.5q0 147.5 42 275.5t125 230.5t220 162t311 59.5t312.5 -59.5t222.5 -162t127 -231.5t43 -276q0 -268 -136 -465l205 -191l-192 -178l-205 211q-156 -102 -377 -102q-174 0 -311 59t-220 161.5t-125 230.5t-42 275.5zM367 706.5q0 -202.5 99 -325.5t306 -123 q111 0 170 27l-190 164l190 165l186 -161q55 125 56 254q0 201 -102.5 324.5t-309.5 123.5t-306 -123t-99 -325.5z" />
<glyph unicode="R" horiz-adv-x="1249" d="M162 -2v1413h475q211 0 360.5 -113.5t149.5 -300.5q0 -135 -73 -231t-191 -150l395 -618h-330l-346 594h-147v-594h-293zM457 823h200q199 10 199 158q0 76 -57.5 121t-159.5 45h-182v-324z" />
<glyph unicode="S" horiz-adv-x="1136" d="M16 414l291 73q10 -102 87 -166.5t194 -64.5q96 0 149.5 44t53.5 110q0 33 -16.5 61.5t-37 47t-63.5 41t-72 33.5t-86 34q-78 31 -118 48t-104.5 55t-97 76t-59 98.5t-26.5 133.5q0 182 132 289t324 107q143 0 263 -64.5t190 -195.5l-250 -146q-76 143 -205 143 q-66 0 -111.5 -40.5t-45.5 -86.5q0 -27 15 -48t57 -42.5t68.5 -33t94.5 -35.5q10 -4 16 -6q74 -27 121 -48.5t111.5 -60.5t102.5 -83t65.5 -111.5t27.5 -149.5q0 -205 -146 -323.5t-363 -118.5q-223 0 -378 122.5t-184 307.5z" />
<glyph unicode="T" horiz-adv-x="1191" d="M20 1145v266h1151v-266h-430v-1145h-292v1145h-429z" />
<glyph unicode="U" horiz-adv-x="1423" d="M152 530v881h292v-887q0 -274 265 -274q270 0 270 274v887h293v-870q0 -268 -142 -414.5t-421 -146.5q-274 0 -415.5 144t-141.5 406z" />
<glyph unicode="V" horiz-adv-x="1400" d="M12 1413h326l367 -1149l360 1149h324l-490 -1413h-395z" />
<glyph unicode="W" horiz-adv-x="1959" d="M18 1413h304l239 -1106l262 885h314l262 -885l239 1106h304l-334 -1413h-396l-233 836l-231 -836h-396z" />
<glyph unicode="X" horiz-adv-x="1372" d="M4 0l475 707l-473 706h348l334 -530l330 530h348l-475 -706l477 -707h-348l-334 522l-334 -522h-348z" />
<glyph unicode="Y" horiz-adv-x="1314" d="M2 1411h326l334 -594l323 594h326l-512 -860v-551h-285v551z" />
<glyph unicode="Z" horiz-adv-x="1236" d="M41 0v195l747 944h-702v272h1110v-209l-737 -942h737v-260h-1155z" />
<glyph unicode="[" horiz-adv-x="604" d="M141 -166v1741h434v-223h-176v-1291h176v-227h-434z" />
<glyph unicode="\" horiz-adv-x="1212" d="M147 1411h256l637 -1567h-256z" />
<glyph unicode="]" horiz-adv-x="604" d="M29 61h176v1291h-176v223h434v-1741h-434v227z" />
<glyph unicode="^" horiz-adv-x="933" d="M14 791l453 733l453 -733h-279l-174 288l-174 -288h-279z" />
<glyph unicode="_" horiz-adv-x="876" d="M0 0h877v-211h-877v211z" />
<glyph unicode="a" horiz-adv-x="1083" d="M84 178q-17 48 -17 95q0 58 25 116q45 105 170 158q143 61 438 61q0 164 -165 164q-156 0 -230 -133l-219 149q166 227 440 228q199 0 323 -102.5t124 -309.5v-604h-254v147h-10q-93 -167 -314 -167q-123 0 -201.5 56t-109.5 142zM358 311q0 -47 37.5 -72.5t98.5 -25.5 q98 0 152 62.5t54 164.5q-203 0 -272.5 -32.5t-69.5 -96.5z" />
<glyph unicode="b" horiz-adv-x="1202" d="M133 0v1413h287v-532h4q35 68 113.5 103.5t156.5 35.5q203 0 321 -151.5t118 -368.5t-118 -368.5t-321 -151.5q-186 0 -268 135h-10v-115h-283zM410 500q0 -119 59 -188.5t159.5 -69.5t159 69.5t58.5 188.5q0 123 -58.5 195.5t-159 72.5t-159.5 -72.5t-59 -195.5z" />
<glyph unicode="c" horiz-adv-x="1060" d="M70 498q0 213 129 365.5t368 152.5q156 0 276 -81t177 -222l-256 -99l-16 7q-37 127 -181 127q-104 0 -157.5 -70t-53.5 -180q0 -113 52.5 -181.5t158.5 -68.5q141 0 183 127l12 6l250 -92q-51 -147 -168 -228t-275 -81q-240 0 -369.5 152.5t-129.5 365.5z" />
<glyph unicode="d" horiz-adv-x="1202" d="M70 500q0 217 117.5 368.5t320.5 151.5q78 0 156.5 -36t113.5 -103h4v532h287v-1413h-283v115h-10q-82 -135 -268 -135q-203 0 -320.5 151.5t-117.5 368.5zM356 500q0 -119 58.5 -188.5t159 -69.5t160 69.5t59.5 188.5q0 123 -59.5 195.5t-160 72.5t-159 -72.5 t-58.5 -195.5z" />
<glyph unicode="e" horiz-adv-x="1083" d="M70 494q0 215 119.5 366.5t355.5 151.5q123 0 219 -42t147.5 -108.5t77 -135.5t25.5 -134q0 -117 -8 -160h-641q16 -190 198 -190q147 0 228 133l229 -107q-63 -131 -186 -205.5t-273 -74.5q-231 0 -361 132t-130 374zM365 608h383q-2 78 -53.5 125t-135.5 47 q-90 0 -143 -47q-51 -45 -51 -119v-6z" />
<glyph unicode="f" horiz-adv-x="722" d="M18 815v184h185v117q0 317 329 318q127 0 216 -60l-91 -184q-45 35 -100 35q-74 0 -74 -107v-119h209v-184h-209v-815h-282v815h-183z" />
<glyph unicode="g" horiz-adv-x="1202" d="M70 543q0 219 119.5 347t306.5 128q184 0 282 -127h8v108h281v-897q0 -217 -139 -336.5t-375 -119.5q-289 0 -469 196l209 172q113 -129 266 -129q223 0 223 217v86q-82 -131 -276 -131q-193 0 -314.5 131t-121.5 355zM356 543q0 -113 58.5 -178.5t156.5 -65.5 q102 0 162 65.5t60 178.5q0 111 -60.5 176t-161.5 65q-98 0 -156.5 -65.5t-58.5 -175.5z" />
<glyph unicode="h" d="M133 0v1411h287v-520h10q94 133 260 133q156 0 252 -107.5t96 -277.5v-639h-284v588q0 84 -44 131t-124 47q-76 0 -121 -55.5t-45 -139.5v-571h-287z" />
<glyph unicode="i" horiz-adv-x="548" d="M133 0v999h283v-999h-283zM135 1171v240h279v-240h-279z" />
<glyph unicode="j" horiz-adv-x="552" d="M-70 -98h150q23 0 39 15t16 40v1042h285v-1003q0 -147 -80 -238.5t-238 -91.5h-172v236zM137 1171v240h281v-240h-281z" />
<glyph unicode="k" horiz-adv-x="1142" d="M133 0v1411h283v-776l350 364h367l-396 -389l426 -610h-338l-282 436l-127 -143v-293h-283z" />
<glyph unicode="l" horiz-adv-x="552" d="M135 0v1411h283v-1411h-283z" />
<glyph unicode="m" horiz-adv-x="1712" d="M133 0v999h279v-116h8q98 135 270 135q82 0 148.5 -47t99.5 -123h10q37 78 116 123t159 45q176 0 271 -112.5t95 -264.5v-639h-284v565q0 88 -42 137.5t-110 49.5q-70 0 -111 -46.5t-41 -132.5v-573h-284v565q0 88 -42 137.5t-108 49.5q-70 0 -110.5 -46.5t-40.5 -132.5 v-573h-283z" />
<glyph unicode="n" d="M133 0v999h283v-108h14q94 133 260 133q156 0 252 -107.5t96 -277.5v-639h-284v588q0 84 -44 131t-124 47q-76 0 -121 -55.5t-45 -139.5v-571h-287z" />
<glyph unicode="o" d="M70 495.5q0 225.5 144 371t368 145.5q221 0 365.5 -146.5t144.5 -370t-144.5 -369.5t-365.5 -146q-223 0 -367.5 145t-144.5 370.5zM367 495.5q0 -120.5 60 -198.5t154.5 -78t155 78t60.5 198.5t-60.5 198.5t-155 78t-154.5 -78t-60 -198.5z" />
<glyph unicode="p" horiz-adv-x="1202" d="M133 -334v1333h287v-118h4q35 68 113.5 103.5t156.5 35.5q203 0 321 -151.5t118 -368.5t-118 -368.5t-321 -151.5q-186 0 -268 135h-10v-449h-283zM410 500q0 -113 62.5 -185.5t156.5 -72.5t155.5 72.5t61.5 185.5q0 117 -61.5 192.5t-155.5 75.5q-96 0 -157.5 -76 t-61.5 -192z" />
<glyph unicode="q" horiz-adv-x="1202" d="M70 500q0 217 117.5 368.5t320.5 151.5q78 0 156.5 -36t113.5 -103h4v118h287v-1333h-283v449h-10q-82 -135 -268 -135q-203 0 -320.5 151.5t-117.5 368.5zM356 500q0 -113 61.5 -185.5t156 -72.5t157 72.5t62.5 185.5q0 117 -61.5 192.5t-158.5 75.5q-94 0 -155.5 -76 t-61.5 -192z" />
<glyph unicode="r" horiz-adv-x="763" d="M133 0v999h262v-159h13q80 174 251 174q49 0 91 -15v-272l-19 -10q-68 26 -125 26h-4q-203 0 -203 -278v-465h-266z" />
<glyph unicode="s" horiz-adv-x="991" d="M14 272l228 99q74 -162 256 -162q78 0 125 22.5t47 57.5q0 33 -59.5 54.5t-144.5 40.5t-169 49t-143.5 95.5t-59.5 161.5q0 143 112.5 233.5t301.5 90.5q137 0 247.5 -56.5t168.5 -169.5l-222 -110q-76 119 -204 119q-59 0 -95 -18.5t-36 -45.5q0 -31 43 -53.5 t108.5 -36.5t141 -39.5t141 -55.5t108.5 -89.5t43 -136.5q0 -152 -123.5 -247t-328.5 -95q-174 0 -307.5 79.5t-178.5 212.5z" />
<glyph unicode="t" horiz-adv-x="704" d="M14 815v184h168v310h285v-310h184v-184h-184v-526q0 -66 74 -66h116v-223h-241q-113 0 -175.5 66.5t-62.5 187.5v561h-164z" />
<glyph unicode="u" d="M123 360v639h285v-587q0 -84 44 -131.5t123 -47.5q76 0 121 55.5t45 139.5v571h287v-999h-283v109h-14q-94 -133 -260 -134q-156 0 -252 107.5t-96 277.5z" />
<glyph unicode="v" horiz-adv-x="1024" d="M-14 999h305l221 -757l223 757h303l-360 -999h-332z" />
<glyph unicode="w" horiz-adv-x="1601" d="M10 999h299l154 -747l199 747h276l199 -747l155 747h299l-260 -999h-368l-166 645l-160 -649h-369z" />
<glyph unicode="x" horiz-adv-x="1050" d="M-14 0l344 504l-344 495h342l198 -315l195 315h344l-348 -495l348 -504h-344l-195 322l-198 -322h-342z" />
<glyph unicode="y" horiz-adv-x="995" d="M-14 999h303l207 -643l211 643h303l-428 -1134q-74 -199 -265 -199h-237v236h125q96 0 127 98l10 35z" />
<glyph unicode="z" horiz-adv-x="1034" d="M57 0v199l531 565h-522v235h890v-211l-497 -552h518v-236h-920z" />
<glyph unicode="{" horiz-adv-x="677" d="M82 594v182q41 16 58.5 23.5t38 23t27.5 37t7 51.5v424q0 281 262 281h51q20 0 58.5 -4t42.5 -4v-197q-74 16 -119 16q-39 0 -47 -4t-8 -16v-512q0 -129 -121 -215q53 -31 87 -80t34 -104v-355q0 -123 84 -123q49 0 90 15v-201q-16 2 -52 -1t-51 -3h-71q-121 0 -203 117 q-37 53 -37 192v355q0 12 -3 23t-12.5 20.5t-16.5 15.5t-23.5 13t-23.5 10.5t-27.5 10.5t-24.5 9z" />
<glyph unicode="|" horiz-adv-x="542" d="M168 -156v1690h207v-1690h-207z" />
<glyph unicode="}" horiz-adv-x="667" d="M51 25q47 -10 84 -11q90 0 90 125v355q0 53 35 102t94 80q-129 72 -129 215v510q0 10 -3 14t-16 8t-40 4q-41 0 -115 -16v186q57 4 94 5h52q258 0 258 -271v-426q0 -57 28.5 -82.5t102.5 -56.5v-172q-4 -2 -19.5 -7t-21.5 -8.5t-19.5 -8.5t-19.5 -9t-16.5 -10 t-14.5 -12.5t-10 -13.5t-8 -16t-2 -20v-354q0 -129 -37 -188q-70 -113 -199 -113h-72q-16 0 -48.5 2t-47.5 2v187z" />
<glyph unicode="~" horiz-adv-x="942" d="M51 406q0 246 242 245q98 0 170 -18.5t111.5 -35.5t60.5 -17q35 0 43 11t8 54h205q0 -266 -262 -266q-117 0 -217.5 38t-116.5 38q-33 0 -40 -8.5t-7 -40.5h-197z" />
<glyph unicode="&#xa1;" horiz-adv-x="604" d="M156 709v290h293v-290h-293zM168 -436l29 991h211l28 -991h-268z" />
<glyph unicode="&#xa2;" horiz-adv-x="1150" d="M106 497.5q0 192.5 97.5 338t281.5 180.5v184h207v-184q133 -23 212 -95.5t140 -209.5l-245 -97q-27 102 -72 143.5t-135 41.5q-117 0 -174.5 -84t-57.5 -217t56.5 -217t175.5 -84q90 0 135 42t72 142l231 -92q-51 -137 -132 -212t-206 -97v-185h-207v185 q-186 35 -282.5 180t-96.5 337.5z" />
<glyph unicode="&#xa3;" horiz-adv-x="1241" d="M49 0v246q10 2 26.5 8t58.5 26.5t75 45t59.5 65.5t26.5 86q0 25 -4 53.5t-8 42.5l-7 17h-223v235h170q-35 80 -35 224q0 176 117 287.5t328 111.5q154 0 263.5 -89t158.5 -226l-221 -82q-66 164 -201 163q-100 0 -151.5 -39.5t-51.5 -132.5q0 -57 8 -111t17 -79l10 -27 h369v-235h-312q4 -45 4 -109q0 -61 -11 -108t-25.5 -72t-30 -41t-25.5 -20l-12 -4h766v-236h-1139z" />
<glyph unicode="&#xa4;" horiz-adv-x="1396" d="M78 1016l223 209l164 -199q111 61 229 61q115 0 226 -65l184 182l215 -207l-232 -168q55 -96 56 -200q0 -125 -60 -207l234 -195l-221 -209l-181 218q-106 -66 -221 -66q-123 0 -225 61l-150 -215l-225 207l203 197q-53 86 -53 209q0 121 53 202zM496 628.5 q0 -100.5 53 -156.5t145 -56q88 0 142.5 56t54.5 156.5t-54.5 157t-142.5 56.5q-92 0 -145 -56.5t-53 -157z" />
<glyph unicode="&#xa5;" horiz-adv-x="1433" d="M29 1413h284l402 -657l405 657h285l-473 -721h201v-211h-299v-129h299v-211h-299v-170h-234v170h-299v211h299v129h-299v215h201z" />
<glyph unicode="&#xa6;" horiz-adv-x="575" d="M168 -156v605h240v-605h-240zM168 768v643h240v-643h-240z" />
<glyph unicode="&#xa7;" horiz-adv-x="1138" d="M131 303l250 64q31 -80 76 -121t137 -41q76 0 129 27.5t53 68.5q0 49 -61.5 73.5t-149.5 40t-176 39t-149.5 91t-61.5 176.5q0 113 76 211q-74 80 -74 190q0 145 120 228.5t278 83.5q229 0 358 -205l-180 -115q-25 35 -44.5 54.5t-54 36t-79.5 16.5q-86 0 -127 -41 t-41 -78q0 -41 61 -61.5t149.5 -34t176.5 -39t149.5 -95t61.5 -182.5q0 -117 -70 -205q70 -78 70 -190q0 -156 -128 -234.5t-296 -78.5q-164 0 -285 81.5t-168 239.5zM410 737q0 -72 125 -110q43 -12 170 -41q72 29 71 98q0 25 -6 42t-22.5 31.5t-31 24t-47 18.5t-53 14 t-65.5 14.5t-72 15.5q-31 -14 -50 -46t-19 -61z" />
<glyph unicode="&#xa9;" horiz-adv-x="1748" d="M74 706.5q0 313.5 233.5 534.5t569.5 221q334 0 566 -221t232 -534.5t-232 -534.5t-566 -221q-336 0 -569.5 221t-233.5 534.5zM291 706.5q0 -219.5 174 -380t412 -160.5q233 0 408 160.5t175 380t-175 380t-408 160.5q-238 0 -412 -160.5t-174 -380zM489 704.5 q0 190.5 104.5 322.5t299.5 132q135 0 223 -65.5t148 -202.5l-195 -78q-41 74 -77 100.5t-99 26.5q-94 0 -142.5 -63.5t-48.5 -172t47.5 -171t141.5 -62.5q72 0 102.5 26.5t73.5 100.5l197 -78q-59 -141 -147.5 -205.5t-223.5 -64.5q-195 0 -299.5 132t-104.5 322.5z" />
<glyph unicode="&#xaa;" horiz-adv-x="733" d="M35 930q0 117 81 173t210 56h182q-4 63 -38 92t-105 29q-100 0 -179 -113l-133 93q66 94 137.5 134t178.5 40q139 0 219 -78t80 -207v-426h-150l-4 70q-94 -84 -219 -84q-111 0 -185.5 60t-74.5 161zM213 930q0 -25 34 -46.5t75 -21.5q68 0 122 42t64 97h-172 q-123 0 -123 -71z" />
<glyph unicode="&#xab;" horiz-adv-x="1024" d="M111 510l452 369v-234l-178 -135l178 -133v-234zM473 510l453 369v-234l-178 -135l178 -133v-234z" />
<glyph unicode="&#xac;" horiz-adv-x="1232" d="M129 549v248h975v-506h-273v258h-702z" />
<glyph unicode="&#xad;" horiz-adv-x="733" d="M61 412v211h611v-211h-611z" />
<glyph unicode="&#xae;" horiz-adv-x="1333" d="M92 891q0 225 168 383t408 158q238 0 405.5 -159t167.5 -382t-168 -382t-405 -159q-240 0 -408 158t-168 383zM242 891q0 -160 126 -275.5t300 -115.5q143 0 264 90h-141l-123 215h-50v-215h-151v592h238q98 0 153 -49.5t55 -135.5q0 -115 -94 -172l133 -221 q137 121 138 287q0 160 -126 275.5t-296 115.5q-174 0 -300 -115.5t-126 -275.5zM610 950h95q43 0 56 10.5t13 37t-13 35.5t-56 9h-95v-92z" />
<glyph unicode="&#xb0;" horiz-adv-x="808" d="M68 1141q0 123 98 208t239.5 85t238.5 -86t97 -207t-97 -207t-238.5 -86t-239.5 85t-98 208zM258 1141q0 -43 44.5 -73t103.5 -30q57 0 101 30t44 73t-44 72.5t-101 29.5q-59 0 -103.5 -29.5t-44.5 -72.5z" />
<glyph unicode="&#xb1;" horiz-adv-x="1382" d="M129 518v213h457v412h211v-412h456v-213h-456v-412h-211v412h-457zM131 0h1120v-211h-1120v211z" />
<glyph unicode="&#xb5;" horiz-adv-x="1067" d="M135 -266v1265h254v-579q0 -205 158 -205q98 0 173 68.5t75 160.5v555h254v-999h-254v72q-121 -94 -265 -95q-74 0 -145 21l-18 -264h-232z" />
<glyph unicode="&#xb6;" horiz-adv-x="1105" d="M82 1018q0 180 134 287.5t319 107.5h170v-1413h-170v623q-184 0 -318.5 107.5t-134.5 287.5zM885 0v1413h172v-1413h-172z" />
<glyph unicode="&#xb7;" horiz-adv-x="522" d="M104 788q0 70 45.5 115t114.5 45q63 0 108.5 -45t45.5 -115q0 -63 -45.5 -108t-108.5 -45q-70 0 -115 45t-45 108z" />
<glyph unicode="&#xba;" horiz-adv-x="829" d="M49 1073.5q0 151.5 103.5 256t267.5 104.5q158 0 259 -105.5t101 -255.5q0 -152 -101 -257t-259 -105q-164 0 -267.5 105.5t-103.5 257zM233 1073q0 -90 45.5 -145.5t141.5 -55.5q88 0 132 55.5t44 145.5t-44 145.5t-132 55.5q-96 0 -141.5 -55.5t-45.5 -145.5z" />
<glyph unicode="&#xbb;" horiz-adv-x="1024" d="M111 143v234l178 133l-178 135v234l452 -369zM473 143v234l178 133l-178 135v234l453 -369z" />
<glyph unicode="&#xbf;" horiz-adv-x="991" d="M76 -20q0 106 34.5 182t85 113.5t100.5 64.5t85 51.5t35 54.5v113h233v-115q0 -96 -34.5 -158.5t-83 -92t-97.5 -54t-84 -64.5t-35 -100q0 -180 217 -180q98 0 157 51.5t61 145.5h241q-2 -197 -128.5 -311.5t-319.5 -114.5q-195 0 -331 108.5t-136 305.5zM383 709v290 h293v-290h-293z" />
<glyph unicode="&#xc0;" horiz-adv-x="1388" d="M6 0l492 1413h395l489 -1413h-323l-96 307h-533l-98 -307h-326zM283 1825h270l229 -301h-174zM508 551h379l-189 598z" />
<glyph unicode="&#xc1;" horiz-adv-x="1388" d="M6 0l492 1413h395l489 -1413h-323l-96 307h-533l-98 -307h-326zM508 551h379l-189 598zM604 1556l227 269h273l-318 -269h-182z" />
<glyph unicode="&#xc2;" horiz-adv-x="1388" d="M6 0l492 1413h395l489 -1413h-323l-96 307h-533l-98 -307h-326zM387 1509l295 318h25l294 -318h-208l-99 131l-98 -131h-209zM508 551h379l-189 598z" />
<glyph unicode="&#xc3;" horiz-adv-x="1388" d="M6 0l492 1413h395l489 -1413h-323l-96 307h-533l-98 -307h-326zM279 1503q0 145 69.5 222t192.5 77q59 0 107 -20.5t72.5 -46t53.5 -46t57 -20.5q82 0 82 127h201q0 -139 -68.5 -218t-189.5 -79q-68 0 -118 22.5t-73.5 48t-53 48t-58.5 22.5q-82 0 -82 -137h-192z M508 551h379l-189 598z" />
<glyph unicode="&#xc4;" horiz-adv-x="1388" d="M6 0l492 1413h395l489 -1413h-323l-96 307h-533l-98 -307h-326zM401 1554v207h222v-207h-222zM508 551h379l-189 598zM768 1554v207h219v-207h-219z" />
<glyph unicode="&#xc5;" horiz-adv-x="1388" d="M6 0l483 1391q-39 61 -38 137q0 98 70.5 169.5t172.5 71.5q100 0 172 -71.5t72 -169.5q0 -76 -37 -135l481 -1393h-323l-96 307h-533l-98 -307h-326zM508 551h379l-189 598zM596 1530q0 -45 28.5 -74t69.5 -29q45 0 73 29t28 74q0 43 -27 69.5t-74 26.5 q-43 0 -70.5 -27.5t-27.5 -68.5z" />
<glyph unicode="&#xc6;" horiz-adv-x="1888" d="M6 0l572 1413h1210v-239h-748v-347h660v-241h-660v-340h748v-246h-1016v307h-371l-110 -307h-285zM494 520h278v654h-20z" />
<glyph unicode="&#xc7;" horiz-adv-x="1456" d="M74 707q0 201 72.5 361.5t234.5 264t391 103.5q221 0 388 -107.5t253 -310.5l-276 -107q-33 113 -132.5 178.5t-234.5 65.5q-186 0 -295.5 -118.5t-109.5 -319.5q0 -209 111.5 -333t297.5 -124q123 0 222.5 67.5t144.5 182.5l274 -111q-74 -176 -211 -281.5t-319 -129.5 l-84 -113q74 -18 120 -64.5t46 -105.5q0 -86 -65.5 -145.5t-151.5 -59.5q-78 0 -134.5 40t-78.5 102l147 69q16 -49 66 -49q18 0 36.5 14.5t18.5 32.5q0 33 -64 49l-153 45l102 181q-301 27 -458.5 229.5t-157.5 493.5z" />
<glyph unicode="&#xc8;" horiz-adv-x="1214" d="M162 0v1411h952v-272h-659v-299h608v-267h-608v-294h659v-279h-952zM225 1825h271l229 -301h-174z" />
<glyph unicode="&#xc9;" horiz-adv-x="1214" d="M162 0v1411h952v-272h-659v-299h608v-267h-608v-294h659v-279h-952zM547 1556l227 269h273l-318 -269h-182z" />
<glyph unicode="&#xca;" horiz-adv-x="1214" d="M162 0v1411h952v-272h-659v-299h608v-267h-608v-294h659v-279h-952zM330 1509l295 318h24l295 -318h-209l-98 131l-98 -131h-209z" />
<glyph unicode="&#xcb;" horiz-adv-x="1214" d="M162 0v1411h952v-272h-659v-299h608v-267h-608v-294h659v-279h-952zM344 1554v207h221v-207h-221zM711 1554v207h219v-207h-219z" />
<glyph unicode="&#xcc;" horiz-adv-x="616" d="M-109 1825h271l229 -301h-174zM162 0v1413h293v-1413h-293z" />
<glyph unicode="&#xcd;" horiz-adv-x="616" d="M162 0v1413h293v-1413h-293zM213 1556l227 269h273l-318 -269h-182z" />
<glyph unicode="&#xce;" horiz-adv-x="616" d="M-4 1509l295 318h24l295 -318h-209l-98 131l-98 -131h-209zM162 0v1413h293v-1413h-293z" />
<glyph unicode="&#xcf;" horiz-adv-x="616" d="M10 1554v207h221v-207h-221zM162 0v1413h293v-1413h-293zM377 1554v207h219v-207h-219z" />
<glyph unicode="&#xd0;" horiz-adv-x="1390" d="M33 606v213h112v594h414q365 0 561.5 -185.5t196.5 -531.5q0 -332 -199.5 -514t-560.5 -182h-412v606h-112zM406 246h126q522 0 523 461q0 236 -120 349t-380 113h-149v-350h360v-213h-360v-360z" />
<glyph unicode="&#xd1;" horiz-adv-x="1558" d="M162 0v1411h315l639 -987v987h279v-1411h-320l-639 989v-989h-274zM358 1503q0 145 70 222t193 77q59 0 107 -20.5t72.5 -46t53.5 -46t57 -20.5q82 0 82 127h201q0 -139 -68.5 -218t-189.5 -79q-68 0 -118 22.5t-73.5 48t-53 48t-58.5 22.5q-82 0 -82 -137h-193z" />
<glyph unicode="&#xd2;" horiz-adv-x="1554" d="M74 706.5q0 333.5 189.5 530.5t510.5 197q324 0 515.5 -197t191.5 -530.5t-191.5 -530t-515.5 -196.5q-322 0 -511 196.5t-189 530zM360 1825h271l229 -301h-174zM389 707q0 -215 104.5 -342t280.5 -127q180 0 286.5 127t106.5 342t-106.5 342t-286.5 127 q-176 0 -280.5 -127t-104.5 -342z" />
<glyph unicode="&#xd3;" horiz-adv-x="1554" d="M74 706.5q0 333.5 189.5 530.5t510.5 197q324 0 515.5 -197t191.5 -530.5t-191.5 -530t-515.5 -196.5q-322 0 -511 196.5t-189 530zM389 707q0 -215 104.5 -342t280.5 -127q180 0 286.5 127t106.5 342t-106.5 342t-286.5 127q-176 0 -280.5 -127t-104.5 -342zM682 1556 l227 269h273l-318 -269h-182z" />
<glyph unicode="&#xd4;" horiz-adv-x="1554" d="M74 706.5q0 333.5 189.5 530.5t510.5 197q324 0 515.5 -197t191.5 -530.5t-191.5 -530t-515.5 -196.5q-322 0 -511 196.5t-189 530zM389 707q0 -215 104.5 -342t280.5 -127q180 0 286.5 127t106.5 342t-106.5 342t-286.5 127q-176 0 -280.5 -127t-104.5 -342zM465 1509 l295 318h24l295 -318h-209l-98 131l-98 -131h-209z" />
<glyph unicode="&#xd5;" horiz-adv-x="1554" d="M74 706.5q0 333.5 189.5 530.5t510.5 197q324 0 515.5 -197t191.5 -530.5t-191.5 -530t-515.5 -196.5q-322 0 -511 196.5t-189 530zM356 1503q0 145 70 222t192 77q59 0 107.5 -20.5t73 -46t53.5 -46t57 -20.5q82 0 82 127h201q0 -139 -68.5 -218t-189.5 -79 q-68 0 -118 22.5t-73.5 48t-53.5 48t-58 22.5q-82 0 -82 -137h-193zM389 707q0 -215 104.5 -342t280.5 -127q180 0 286.5 127t106.5 342t-106.5 342t-286.5 127q-176 0 -280.5 -127t-104.5 -342z" />
<glyph unicode="&#xd6;" horiz-adv-x="1554" d="M74 706.5q0 333.5 189.5 530.5t510.5 197q324 0 515.5 -197t191.5 -530.5t-191.5 -530t-515.5 -196.5q-322 0 -511 196.5t-189 530zM389 707q0 -215 104.5 -342t280.5 -127q180 0 286.5 127t106.5 342t-106.5 342t-286.5 127q-176 0 -280.5 -127t-104.5 -342zM479 1554 v207h221v-207h-221zM846 1554v207h219v-207h-219z" />
<glyph unicode="&#xd7;" horiz-adv-x="1013" d="M35 301l321 324l-288 288l147 156l291 -289l323 316l150 -148l-322 -323l291 -289l-147 -156l-295 289l-324 -315z" />
<glyph unicode="&#xd8;" horiz-adv-x="1554" d="M74 707q0 334 189.5 530.5t510.5 196.5q258 0 440 -131l97 96l155 -154l-102 -102q117 -180 117 -436q0 -334 -191.5 -530.5t-515.5 -196.5q-260 0 -440 133l-98 -99l-156 154l106 106q-113 178 -112 433zM389 707q0 -109 29 -201l592 592q-96 78 -236 78 q-176 0 -280.5 -127t-104.5 -342zM539 317q98 -79 235 -79q180 0 286.5 127t106.5 342q0 121 -32 206z" />
<glyph unicode="&#xd9;" horiz-adv-x="1423" d="M152 530v881h292v-887q0 -274 265 -274q270 0 270 274v887h293v-870q0 -268 -142 -414.5t-421 -146.5q-274 0 -415.5 144t-141.5 406zM299 1825h270l230 -301h-174z" />
<glyph unicode="&#xda;" horiz-adv-x="1423" d="M152 530v881h292v-887q0 -274 265 -274q270 0 270 274v887h293v-870q0 -268 -142 -414.5t-421 -146.5q-274 0 -415.5 144t-141.5 406zM621 1556l227 269h272l-317 -269h-182z" />
<glyph unicode="&#xdb;" horiz-adv-x="1423" d="M152 530v881h292v-887q0 -274 265 -274q270 0 270 274v887h293v-870q0 -268 -142 -414.5t-421 -146.5q-274 0 -415.5 144t-141.5 406zM403 1509l295 318h25l295 -318h-209l-98 131l-99 -131h-209z" />
<glyph unicode="&#xdc;" horiz-adv-x="1423" d="M152 530v881h292v-887q0 -274 265 -274q270 0 270 274v887h293v-870q0 -268 -142 -414.5t-421 -146.5q-274 0 -415.5 144t-141.5 406zM418 1554v207h221v-207h-221zM784 1554v207h220v-207h-220z" />
<glyph unicode="&#xdd;" horiz-adv-x="1314" d="M2 1411h326l334 -594l323 594h326l-512 -860v-551h-285v551zM565 1556l228 269h272l-317 -269h-183z" />
<glyph unicode="&#xde;" horiz-adv-x="1157" d="M162 0v1413h258v-192h188q223 0 362.5 -112t139.5 -306q0 -199 -139.5 -309.5t-362.5 -110.5h-188v-383h-258zM420 629h188q244 0 244 188q0 195 -244 195h-188v-383z" />
<glyph unicode="&#xdf;" horiz-adv-x="1185" d="M135 0v1006q0 199 131 313.5t314 114.5q113 0 215 -43t172.5 -133.5t70.5 -208.5q0 -82 -36.5 -139.5t-79.5 -79t-80 -43t-37 -40t32.5 -43t79 -56.5t92.5 -71.5t78.5 -106.5t32.5 -144q0 -152 -110.5 -248t-280.5 -96q-133 0 -283 69v35l97 203q92 -59 178 -60 q59 0 93 32t34 73q0 43 -46 89t-101.5 84t-101.5 105.5t-46 147.5q0 68 34 116t74.5 68.5t74.5 51t34 71.5q0 49 -42 90t-130 41q-96 0 -145.5 -52t-49.5 -140v-1006h-268z" />
<glyph unicode="&#xe0;" horiz-adv-x="1083" d="M84 178q-37 106 8 211t170 158q143 61 438 61q0 164 -165 164q-156 0 -230 -133l-219 149q166 227 440 228q199 0 323 -102.5t124 -309.5v-604h-254v147h-10q-93 -167 -314 -167q-123 0 -201.5 56t-109.5 142zM111 1413h270l229 -301h-174zM358 311q0 -47 37.5 -72.5 t98.5 -25.5q98 0 152 62.5t54 164.5q-203 0 -272.5 -32.5t-69.5 -96.5z" />
<glyph unicode="&#xe1;" horiz-adv-x="1083" d="M84 178q-37 106 8 211t170 158q143 61 438 61q0 164 -165 164q-156 0 -230 -133l-219 149q166 227 440 228q199 0 323 -102.5t124 -309.5v-604h-254v147h-10q-93 -167 -314 -167q-123 0 -201.5 56t-109.5 142zM358 311q0 -47 37.5 -72.5t98.5 -25.5q98 0 152 62.5 t54 164.5q-203 0 -272.5 -32.5t-69.5 -96.5zM432 1145l227 268h273l-318 -268h-182z" />
<glyph unicode="&#xe2;" horiz-adv-x="1083" d="M84 178q-37 106 8 211t170 158q143 61 438 61q0 164 -165 164q-156 0 -230 -133l-219 149q166 227 440 228q199 0 323 -102.5t124 -309.5v-604h-254v147h-10q-93 -167 -314 -167q-123 0 -201.5 56t-109.5 142zM215 1098l295 317h25l294 -317h-208l-99 131l-98 -131h-209z M358 311q0 -47 37.5 -72.5t98.5 -25.5q98 0 152 62.5t54 164.5q-203 0 -272.5 -32.5t-69.5 -96.5z" />
<glyph unicode="&#xe3;" horiz-adv-x="1083" d="M84 178q-37 106 8 211t170 158q143 61 438 61q0 164 -165 164q-156 0 -230 -133l-219 149q166 227 440 228q199 0 323 -102.5t124 -309.5v-604h-254v147h-10q-93 -167 -314 -167q-123 0 -201.5 56t-109.5 142zM106 1092q0 145 70 222t193 77q76 0 130 -34t91 -67t69 -33 q82 0 82 127h201q0 -139 -68.5 -218t-189.5 -79q-68 0 -118 23t-73.5 48.5t-53 48t-58.5 22.5q-82 0 -82 -137h-193zM358 311q0 -47 37.5 -72.5t98.5 -25.5q98 0 152 62.5t54 164.5q-203 0 -272.5 -32.5t-69.5 -96.5z" />
<glyph unicode="&#xe4;" horiz-adv-x="1083" d="M84 178q-37 106 8 211t170 158q143 61 438 61q0 164 -165 164q-156 0 -230 -133l-219 149q166 227 440 228q199 0 323 -102.5t124 -309.5v-604h-254v147h-10q-93 -167 -314 -167q-123 0 -201.5 56t-109.5 142zM229 1143v207h222v-207h-222zM358 311q0 -47 37.5 -72.5 t98.5 -25.5q98 0 152 62.5t54 164.5q-203 0 -272.5 -32.5t-69.5 -96.5zM596 1143v207h219v-207h-219z" />
<glyph unicode="&#xe5;" horiz-adv-x="1083" d="M84 178q-37 106 8 211t170 158q143 61 438 61q0 164 -165 164q-156 0 -230 -133l-219 149q166 227 440 228q199 0 323 -102.5t124 -309.5v-604h-254v147h-10q-93 -167 -314 -167q-123 0 -201.5 56t-109.5 142zM279 1313q0 98 70.5 169.5t172.5 71.5q100 0 172 -71.5 t72 -169.5q0 -106 -69.5 -176t-174 -70t-174 71.5t-69.5 174.5zM358 311q0 -47 37.5 -72.5t98.5 -25.5q98 0 152 62.5t54 164.5q-203 0 -272.5 -32.5t-69.5 -96.5zM424 1315q0 -45 28.5 -74t69.5 -29q45 0 73 29t28 74q0 43 -27 69.5t-74 26.5q-43 0 -70.5 -27.5 t-27.5 -68.5z" />
<glyph unicode="&#xe6;" horiz-adv-x="1720" d="M68 301q0 184 192 254q154 53 438 53q0 98 -48 131t-126 33q-152 0 -221 -133l-219 149q166 227 436 228q225 0 342 -117q123 113 320 113q123 0 219 -42t147 -108.5t77 -135.5t26 -134q0 -117 -9 -160h-641q8 -94 60.5 -142t138.5 -48q70 0 131 36t96 97l230 -107 q-63 -131 -186 -205.5t-273 -74.5q-260 0 -387 162q-141 -170 -399 -170q-145 0 -244.5 88t-99.5 233zM356 315q1 -102 136 -102q94 0 148 56.5t58 162.5q-221 0 -292 -37q-49 -25 -50 -80zM1001 608h383q-3 172 -202 172q-82 0 -132.5 -49t-48.5 -123z" />
<glyph unicode="&#xe7;" horiz-adv-x="1060" d="M70 498q0 213 129 365.5t368 152.5q156 0 276 -81t177 -222l-256 -99l-16 7q-37 127 -181 127q-104 0 -157.5 -70t-53.5 -180q0 -113 52.5 -181.5t158.5 -68.5q142 0 183 127l12 6l250 -92q-82 -238 -318 -295l-90 -119q74 -18 120 -64.5t46 -105.5q0 -86 -65.5 -145.5 t-151.5 -59.5q-78 0 -134.5 40t-78.5 102l147 69q16 -49 66 -49q18 0 36.5 14.5t18.5 32.5q0 33 -63 49l-154 45l103 181q-205 25 -314.5 172t-109.5 342z" />
<glyph unicode="&#xe8;" horiz-adv-x="1083" d="M70 494q0 215 119.5 366.5t355.5 151.5q123 0 219 -42t147.5 -108.5t77 -135.5t25.5 -134q0 -117 -8 -160h-641q16 -190 198 -190q147 0 228 133l229 -107q-63 -131 -186 -205.5t-273 -74.5q-231 0 -361 132t-130 374zM121 1413h270l230 -301h-175zM365 608h383 q-2 78 -53.5 125t-135.5 47q-90 0 -143 -47t-51 -125z" />
<glyph unicode="&#xe9;" horiz-adv-x="1083" d="M70 494q0 215 119.5 366.5t355.5 151.5q123 0 219 -42t147.5 -108.5t77 -135.5t25.5 -134q0 -117 -8 -160h-641q16 -190 198 -190q147 0 228 133l229 -107q-63 -131 -186 -205.5t-273 -74.5q-231 0 -361 132t-130 374zM365 608h383q-2 78 -53.5 125t-135.5 47 q-90 0 -143 -47t-51 -125zM442 1145l228 268h272l-317 -268h-183z" />
<glyph unicode="&#xea;" horiz-adv-x="1083" d="M70 494q0 215 119.5 366.5t355.5 151.5q123 0 219 -42t147.5 -108.5t77 -135.5t25.5 -134q0 -117 -8 -160h-641q16 -190 198 -190q147 0 228 133l229 -107q-63 -131 -186 -205.5t-273 -74.5q-231 0 -361 132t-130 374zM225 1098l295 317h25l295 -317h-209l-99 131 l-98 -131h-209zM365 608h383q-2 78 -53.5 125t-135.5 47q-90 0 -143 -47t-51 -125z" />
<glyph unicode="&#xeb;" horiz-adv-x="1083" d="M70 494q0 215 119.5 366.5t355.5 151.5q123 0 219 -42t147.5 -108.5t77 -135.5t25.5 -134q0 -117 -8 -160h-641q16 -190 198 -190q147 0 228 133l229 -107q-63 -131 -186 -205.5t-273 -74.5q-231 0 -361 132t-130 374zM240 1143v207h221v-207h-221zM365 608h383 q-2 78 -53.5 125t-135.5 47q-90 0 -143 -47t-51 -125zM606 1143v207h219v-207h-219z" />
<glyph unicode="&#xec;" horiz-adv-x="552" d="M-137 1413h270l229 -301h-174zM135 0v999h283v-999h-283z" />
<glyph unicode="&#xed;" horiz-adv-x="552" d="M135 0v999h283v-999h-283zM184 1145l228 268h272l-317 -268h-183z" />
<glyph unicode="&#xee;" horiz-adv-x="552" d="M-33 1098l295 317h25l295 -317h-209l-99 131l-98 -131h-209zM135 0v999h283v-999h-283z" />
<glyph unicode="&#xef;" horiz-adv-x="552" d="M-18 1143v207h221v-207h-221zM135 0v999h283v-999h-283zM348 1143v207h219v-207h-219z" />
<glyph unicode="&#xf0;" horiz-adv-x="1171" d="M70 516q0 221 138 377t378 156q88 0 166 -23q-45 72 -144 148l-51 -72l-172 112l43 62q-47 31 -141 57l110 183q4 -2 150 -66l71 111l170 -115l-63 -94q377 -279 377 -836q0 -219 -140 -375.5t-376 -156.5q-240 0 -378 155.5t-138 376.5zM360 516q0 -119 63 -209t163 -90 q96 0 159.5 90t63.5 209q0 121 -65.5 210t-157.5 89q-100 0 -163 -90t-63 -209z" />
<glyph unicode="&#xf1;" d="M133 0v999h283v-108h14q94 133 260 133q156 0 252 -107.5t96 -277.5v-639h-284v588q0 84 -44 131t-124 47q-76 0 -121 -55.5t-45 -139.5v-571h-287zM168 1092q0 145 69.5 222t192.5 77q76 0 130 -34t91 -67t70 -33q82 0 82 127h201q0 -139 -69 -218t-190 -79 q-68 0 -117.5 23t-73.5 48.5t-53.5 48t-58.5 22.5q-82 0 -82 -137h-192z" />
<glyph unicode="&#xf2;" d="M70 495.5q0 225.5 144 371t368 145.5q221 0 365.5 -146.5t144.5 -370t-144.5 -369.5t-365.5 -146q-223 0 -367.5 145t-144.5 370.5zM168 1413h270l230 -301h-174zM367 495.5q0 -120.5 60 -198.5t154.5 -78t155 78t60.5 198.5t-60.5 198.5t-155 78t-154.5 -78t-60 -198.5z " />
<glyph unicode="&#xf3;" d="M70 495.5q0 225.5 144 371t368 145.5q221 0 365.5 -146.5t144.5 -370t-144.5 -369.5t-365.5 -146q-223 0 -367.5 145t-144.5 370.5zM367 495.5q0 -120.5 60 -198.5t154.5 -78t155 78t60.5 198.5t-60.5 198.5t-155 78t-154.5 -78t-60 -198.5zM489 1145l228 268h272 l-317 -268h-183z" />
<glyph unicode="&#xf4;" d="M70 495.5q0 225.5 144 371t368 145.5q221 0 365.5 -146.5t144.5 -370t-144.5 -369.5t-365.5 -146q-223 0 -367.5 145t-144.5 370.5zM272 1098l295 317h25l295 -317h-209l-98 131l-99 -131h-209zM367 495.5q0 -120.5 60 -198.5t154.5 -78t155 78t60.5 198.5t-60.5 198.5 t-155 78t-154.5 -78t-60 -198.5z" />
<glyph unicode="&#xf5;" d="M70 495.5q0 225.5 144 371t368 145.5q221 0 365.5 -146.5t144.5 -370t-144.5 -369.5t-365.5 -146q-223 0 -367.5 145t-144.5 370.5zM164 1092q0 145 69.5 222t192.5 77q76 0 130 -34t91 -67t70 -33q82 0 82 127h200q0 -139 -68.5 -218t-189.5 -79q-68 0 -118 23 t-73.5 48.5t-53 48t-58.5 22.5q-82 0 -82 -137h-192zM367 495.5q0 -120.5 60 -198.5t154.5 -78t155 78t60.5 198.5t-60.5 198.5t-155 78t-154.5 -78t-60 -198.5z" />
<glyph unicode="&#xf6;" d="M70 495.5q0 225.5 144 371t368 145.5q221 0 365.5 -146.5t144.5 -370t-144.5 -369.5t-365.5 -146q-223 0 -367.5 145t-144.5 370.5zM287 1143v207h221v-207h-221zM367 495.5q0 -120.5 60 -198.5t154.5 -78t155 78t60.5 198.5t-60.5 198.5t-155 78t-154.5 -78t-60 -198.5z M653 1143v207h219v-207h-219z" />
<glyph unicode="&#xf7;" horiz-adv-x="1515" d="M129 414v211h1257v-211h-1257zM610 35v291h295v-291h-295zM610 698v291h295v-291h-295z" />
<glyph unicode="&#xf8;" d="M70 496q0 225 144 370.5t368 145.5q174 0 307 -94l74 73l108 -110l-74 -74q94 -137 95 -311q0 -223 -144.5 -369.5t-365.5 -146.5q-176 0 -314 98l-67 -68l-111 109l72 71q-92 131 -92 306zM367 496q0 -43 10 -90l323 323q-49 43 -118 43q-94 0 -154.5 -77.5 t-60.5 -198.5zM457 266q53 -47 125 -47q94 0 154.5 78t60.5 199q0 53 -13 98z" />
<glyph unicode="&#xf9;" d="M123 360v639h285v-587q0 -84 44 -131.5t123 -47.5q76 0 121 55.5t45 139.5v571h287v-999h-283v109h-14q-94 -133 -260 -134q-156 0 -252 107.5t-96 277.5zM158 1413h270l229 -301h-174z" />
<glyph unicode="&#xfa;" d="M123 360v639h285v-587q0 -84 44 -131.5t123 -47.5q76 0 121 55.5t45 139.5v571h287v-999h-283v109h-14q-94 -133 -260 -134q-156 0 -252 107.5t-96 277.5zM479 1145l228 268h272l-317 -268h-183z" />
<glyph unicode="&#xfb;" d="M123 360v639h285v-587q0 -84 44 -131.5t123 -47.5q76 0 121 55.5t45 139.5v571h287v-999h-283v109h-14q-94 -133 -260 -134q-156 0 -252 107.5t-96 277.5zM262 1098l295 317h25l295 -317h-209l-99 131l-98 -131h-209z" />
<glyph unicode="&#xfc;" d="M123 360v639h285v-587q0 -84 44 -131.5t123 -47.5q76 0 121 55.5t45 139.5v571h287v-999h-283v109h-14q-94 -133 -260 -134q-156 0 -252 107.5t-96 277.5zM276 1143v207h222v-207h-222zM643 1143v207h219v-207h-219z" />
<glyph unicode="&#xfd;" horiz-adv-x="995" d="M-14 999h303l207 -643l211 643h303l-428 -1134q-74 -199 -265 -199h-237v236h125q96 0 127 98l10 35zM408 1145l227 268h272l-317 -268h-182z" />
<glyph unicode="&#xfe;" horiz-adv-x="1175" d="M133 -334v1745h287v-530h4q35 68 113.5 103.5t156.5 35.5q203 0 321 -151.5t118 -368.5t-118 -368.5t-321 -151.5q-186 0 -268 135h-10v-449h-283zM410 500q0 -121 55 -189.5t164 -68.5q104 0 160.5 69.5t56.5 188t-57.5 193.5t-159.5 75q-109 0 -164 -73.5t-55 -194.5z " />
<glyph unicode="&#xff;" horiz-adv-x="995" d="M-14 999h303l207 -643l211 643h303l-428 -1134q-74 -199 -265 -199h-237v236h125q96 0 127 98l10 35zM205 1143v207h221v-207h-221zM571 1143v207h220v-207h-220z" />
<glyph unicode="&#x152;" horiz-adv-x="2324" d="M74 706.5q0 147.5 42 275.5t125 230.5t220 162t311 59.5q254 0 412 -127v104h1040v-272h-747v-299h659v-267h-659v-294h747v-279h-1040v106q-168 -126 -412 -126q-174 0 -311 59t-220 161.5t-125 230.5t-42 275.5zM367 706.5q0 -202.5 99 -325.5t306 -123t309.5 124 t102.5 324.5t-102.5 324.5t-309.5 124t-306 -123t-99 -325.5z" />
<glyph unicode="&#x153;" horiz-adv-x="1824" d="M70 495.5q0 225.5 144 371t368 145.5q215 0 358 -140q129 139 346 140q123 0 219.5 -42t147.5 -108.5t76.5 -135.5t25.5 -134q0 -117 -8 -160h-641q16 -190 199 -190q147 0 227 133l229 -107q-63 -131 -186 -205.5t-272 -74.5q-233 0 -361 131q-143 -139 -360 -139 q-223 0 -367.5 145t-144.5 370.5zM367 495.5q0 -120.5 60 -198.5t154.5 -78t155 78t60.5 198.5t-60.5 198.5t-155 78t-154.5 -78t-60 -198.5zM1106 608h383q-2 78 -53.5 125t-135.5 47q-90 0 -143 -47t-51 -125z" />
<glyph unicode="&#x178;" horiz-adv-x="1314" d="M2 1411h326l334 -594l323 594h326l-512 -860v-551h-285v551zM362 1554v207h222v-207h-222zM729 1554v207h219v-207h-219z" />
<glyph unicode="&#x2000;" horiz-adv-x="913" />
<glyph unicode="&#x2001;" horiz-adv-x="1827" />
<glyph unicode="&#x2002;" horiz-adv-x="913" />
<glyph unicode="&#x2003;" horiz-adv-x="1827" />
<glyph unicode="&#x2004;" horiz-adv-x="609" />
<glyph unicode="&#x2005;" horiz-adv-x="456" />
<glyph unicode="&#x2006;" horiz-adv-x="304" />
<glyph unicode="&#x2007;" horiz-adv-x="304" />
<glyph unicode="&#x2008;" horiz-adv-x="228" />
<glyph unicode="&#x2009;" horiz-adv-x="365" />
<glyph unicode="&#x200a;" horiz-adv-x="101" />
<glyph unicode="&#x2010;" horiz-adv-x="733" d="M61 412v211h611v-211h-611z" />
<glyph unicode="&#x2011;" horiz-adv-x="733" d="M61 412v211h611v-211h-611z" />
<glyph unicode="&#x2012;" horiz-adv-x="733" d="M61 412v211h611v-211h-611z" />
<glyph unicode="&#x2013;" horiz-adv-x="876" d="M41 412v211h795v-211h-795z" />
<glyph unicode="&#x2014;" horiz-adv-x="1925" d="M41 412v211h1843v-211h-1843z" />
<glyph unicode="&#x2018;" horiz-adv-x="692" d="M125 1413h307l146 -584h-189z" />
<glyph unicode="&#x2019;" horiz-adv-x="692" d="M115 829l139 584h313l-264 -584h-188z" />
<glyph unicode="&#x201a;" horiz-adv-x="653" d="M115 -225l135 489h278l-258 -489h-155z" />
<glyph unicode="&#x201c;" horiz-adv-x="1107" d="M125 1413h307l146 -584h-189zM541 1413h313l139 -584h-188z" />
<glyph unicode="&#x201d;" horiz-adv-x="1107" d="M115 829l139 584h313l-264 -584h-188zM530 829l148 584h305l-264 -584h-189z" />
<glyph unicode="&#x201e;" horiz-adv-x="1058" d="M115 -225l135 489h278l-258 -489h-155zM520 -225l135 489h279l-258 -489h-156z" />
<glyph unicode="&#x2022;" horiz-adv-x="997" d="M76 502q0 174 124 299t300 125q174 0 298 -125t124 -299t-124 -299t-298 -125q-176 0 -300 125t-124 299z" />
<glyph unicode="&#x2026;" horiz-adv-x="1298" d="M104 0v291h263v-291h-263zM518 0v291h262v-291h-262zM932 0v291h262v-291h-262z" />
<glyph unicode="&#x202f;" horiz-adv-x="365" />
<glyph unicode="&#x2039;" horiz-adv-x="628" d="M88 510l453 369v-234l-179 -135l179 -133v-234z" />
<glyph unicode="&#x203a;" horiz-adv-x="628" d="M88 143v234l178 133l-178 135v234l453 -369z" />
<glyph unicode="&#x205f;" horiz-adv-x="456" />
<glyph unicode="&#x20ac;" horiz-adv-x="1230" d="M45 451l88 194h43q-2 25 -2 62q0 14 1 40.5t1 32.5h-131l88 211h70q61 205 191 325t335 120q258 0 406 -207l-179 -135q-70 106 -227 106q-213 0 -297 -209h531l-80 -205h-486q-4 -37 -4 -61q0 -27 4 -72h566l-80 -194h-451q84 -244 299 -244q150 0 221 111l170 -158 q-158 -188 -391 -188q-209 0 -342 129t-188 342h-156z" />
<glyph unicode="&#x2122;" horiz-adv-x="1318" d="M10 1247v166h469v-166h-145v-370h-178v370h-146zM578 877v536h251l80 -248l76 248h252v-536h-180v370l-96 -289h-103l-102 287v-368h-178z" />
<glyph unicode="&#x25fc;" horiz-adv-x="1003" d="M0 0v1004h1004v-1004h-1004z" />
<glyph unicode="&#xfb03;" horiz-adv-x="1783" d="M18 815v184h185v117q0 154 87 236t253 82q125 0 215 -60l-90 -209q-47 35 -101 35q-76 0 -75 -106v-95h210h97v117q0 154 87 236t253 82q127 0 215 -60l-90 -209q-47 35 -101 35q-76 0 -76 -106v-95h564v-999h-254v815h-310v-815h-290v815h-183h-122v-815h-291v815h-183z " />
<glyph unicode="&#xfb04;" horiz-adv-x="1861" d="M18 815v184h185v117q0 154 87 236t253 82q125 0 215 -60l-90 -209q-47 35 -101 35q-76 0 -75 -106v-95h210h97v117q0 154 87 236t253 82q127 0 215 -60l-90 -209q-48 35 -101 35q-76 0 -76 -106v-95h228v-184h-228v-815h-290v815h-183h-122v-815h-291v815h-183zM1438 0 v1411h288v-1411h-288z" />
</font>
</defs>
</svg>
